<svg width="68" height="67" viewBox="0 0 68 67" fill="none" xmlns="http://www.w3.org/2000/svg">
<g opacity="0.3">
<path d="M34.2881 0.590088C1.5084 0.590088 0.756836 37.301 0.756836 44.5854C0.756836 51.8698 15.7881 57.7667 34.2881 57.7667C52.7881 57.7667 67.8193 51.8698 67.8193 44.5854C67.8193 37.301 67.0678 0.590088 34.2881 0.590088Z" fill="white"/>
<path d="M23.8232 34.0057C23.8232 34.0057 35.4436 29.5541 43.8264 38.4573" stroke="#2F2F2F" stroke-width="1.5" stroke-miterlimit="10" stroke-linecap="round"/>
<path d="M23.7665 21.8651C21.6853 21.576 20.2978 19.3791 20.5869 16.8932C20.8759 14.4073 22.8415 12.6151 24.9228 12.9041C27.004 13.1932 28.3915 15.3901 28.1025 17.876C27.7556 20.3619 25.8478 22.1541 23.7665 21.8651Z" fill="#2F2F2F"/>
<path d="M48.0471 20.3621C48.0471 20.0152 47.9892 19.7261 47.9314 19.4371C47.8736 19.2636 47.758 19.0902 47.5845 19.0324C46.4861 18.5121 43.7689 17.4136 42.208 16.9511C41.9767 16.8933 41.7455 16.9511 41.6299 17.1246C40.8783 17.9917 40.4158 19.2058 40.4736 20.5355C40.5314 23.0214 42.3236 25.0449 44.4049 24.9871C46.4283 24.9871 48.1049 22.9058 48.0471 20.3621Z" fill="#2F2F2F"/>
<path d="M18.7946 65.5136C14.4587 65.5136 11.5102 64.2996 9.13992 61.6402C6.2493 58.2871 6.65399 54.0667 7.00086 50.3089C7.1743 48.2277 7.75242 47.0136 8.21492 45.9152C8.73524 44.7589 9.13992 43.7761 9.19774 41.7527C9.19774 41.2902 9.08211 40.5386 8.96649 39.7871C8.61961 37.7058 8.15711 35.3355 9.66024 34.2371C10.1805 33.8324 10.8743 33.6589 11.6837 33.6589C13.129 33.6589 14.6321 34.3527 15.3837 35.4511C16.5977 37.1277 17.0024 38.7464 17.0024 42.273C17.0024 43.7183 17.4071 44.2386 18.0431 44.7011C18.2165 44.8167 18.4477 44.9324 19.2571 44.9324C20.0087 44.9324 20.9337 44.8167 22.3212 44.7011C22.7837 44.6433 23.2462 44.5855 23.7665 44.5855C25.2118 44.4699 29.5477 44.0074 32.3227 43.6027C33.0165 43.4871 33.7681 43.3714 34.4618 43.2558C36.1384 42.9667 37.8149 42.6777 39.0868 42.6777C39.7227 42.6777 40.2431 42.7355 40.6477 42.9089C41.804 43.3136 42.5556 44.3542 42.6134 45.6839C42.729 47.1871 41.9196 48.5746 40.7056 49.2105C39.4915 49.8464 34.2884 50.8871 31.2243 51.2339C31.2821 51.3496 31.3399 51.4074 31.3399 51.523C31.7446 52.6792 31.5712 54.2402 30.9352 55.2808C30.8196 55.5121 30.6462 55.6855 30.5306 55.8011C31.1087 56.8996 30.704 58.4027 30.2993 59.2699C30.1837 59.5011 30.0102 59.848 29.6634 60.1371C29.8368 60.5996 29.9524 61.1777 29.7212 62.0449C29.2587 64.0105 26.0212 65.1089 20.2399 65.4558C19.7196 65.5136 19.2571 65.5136 18.7946 65.5136Z" fill="white"/>
<path d="M11.6259 34.8152C12.6666 34.8152 13.8228 35.2777 14.4009 36.1449C15.4416 37.648 15.7884 38.9777 15.8462 42.3308C15.8462 44.123 16.4244 44.9902 17.4072 45.6839C17.8697 45.973 18.4478 46.0886 19.2572 46.0886C20.2978 46.0886 21.7431 45.9152 23.8244 45.6839C25.4431 45.5105 29.7212 45.1058 32.4384 44.7011C34.5775 44.4121 37.3525 43.7761 39.0869 43.7761C39.5494 43.7761 39.9541 43.8339 40.2431 43.9496C41.9775 44.5855 41.7462 47.3605 40.1853 48.1121C39.0869 48.6324 33.4212 49.8464 30.415 50.0777C28.2759 50.2511 27.8134 50.4246 27.8134 50.5402C27.6978 50.8871 28.7384 50.7714 29.5478 51.0605C30.6462 51.4074 30.6462 53.4886 29.9525 54.5871C29.49 55.3386 28.9697 55.1074 28.9697 55.5699C28.9697 55.7433 29.2587 55.9746 29.3744 56.148C29.7791 56.7261 29.6056 57.9402 29.2009 58.6917C29.0275 58.9808 28.9119 59.2699 28.565 59.3855C28.2181 59.5011 28.1603 59.7324 28.2759 60.0792C28.5072 60.4839 28.7384 60.8886 28.5072 61.7558C28.1603 63.0855 24.8072 64.0105 20.0666 64.2996C19.6041 64.2996 19.1416 64.3574 18.7369 64.3574C14.8056 64.3574 12.0884 63.3167 9.94937 60.8886C7.46343 58.0558 7.69468 54.5292 8.09937 50.4246C8.50406 46.3777 10.2384 46.0308 10.2384 41.7527C10.2384 39.9605 8.85093 36.1449 10.1806 35.1621C10.6431 34.9308 11.1056 34.8152 11.6259 34.8152ZM11.6259 32.5027C10.5853 32.5027 9.66031 32.7917 8.90875 33.3121C6.88531 34.8152 7.34781 37.7058 7.7525 39.9605C7.86812 40.5964 7.98375 41.348 7.98375 41.6949C7.98375 43.4871 7.63687 44.2964 7.11656 45.3949C6.65406 46.4933 6.01812 47.8808 5.84468 50.1355C5.49781 54.1246 5.03531 58.5761 8.27281 62.3339C10.8166 65.2824 14.1697 66.6121 18.7947 66.6121C19.2572 66.6121 19.7775 66.6121 20.2978 66.5542C28.9119 66.0917 30.415 63.8949 30.8197 62.2761C30.9931 61.5246 30.9931 60.8886 30.9353 60.3683C31.1087 60.0792 31.2822 59.848 31.34 59.6746C31.7447 58.8652 32.2072 57.3042 31.8603 55.9167C31.9181 55.8589 31.9181 55.8011 31.9759 55.7433C32.6119 54.7027 32.9009 53.3152 32.7275 52.0433C35.7916 51.5808 40.0119 50.7136 41.2837 50.0777C42.9025 49.2683 43.9431 47.4183 43.8275 45.4527C43.7119 43.6605 42.6712 42.2152 41.1103 41.6371C40.59 41.4636 39.9541 41.348 39.2025 41.348C37.815 41.348 36.0806 41.6371 34.3462 41.9261C33.5947 42.0417 32.8431 42.1574 32.2072 42.273C29.4322 42.6777 25.1541 43.0824 23.7087 43.2558C23.1884 43.3136 22.7259 43.3714 22.2634 43.3714C20.9916 43.4871 20.0087 43.6027 19.315 43.6027C18.9103 43.6027 18.7947 43.5449 18.7369 43.5449C18.4478 43.3136 18.2166 43.1402 18.2166 42.0996C18.1587 38.7464 17.8697 36.7808 16.3666 34.6417C15.2681 33.4277 13.4759 32.5027 11.6259 32.5027Z" fill="#2F2F2F"/>
</g>
</svg>
