<svg width="20" height="19" viewBox="0 0 20 19" fill="none" xmlns="http://www.w3.org/2000/svg">
<path d="M9.53076 0.278076C4.28404 0.278076 0.0307617 4.3075 0.0307617 9.27808C0.0307617 14.2487 4.28404 18.2781 9.53076 18.2781C14.7775 18.2781 19.0308 14.2487 19.0308 9.27808C19.0308 4.3075 14.7775 0.278076 9.53076 0.278076ZM9.53076 2.02001C13.7649 2.02001 17.1921 5.26622 17.1921 9.27808C17.1921 13.2893 13.7655 16.5361 9.53076 16.5361C5.29667 16.5361 1.86947 13.2899 1.86947 9.27808C1.86947 5.26683 5.29602 2.02001 9.53076 2.02001ZM14.9015 6.74744L14.0382 5.923C13.8594 5.75225 13.5684 5.75113 13.3881 5.92053L7.97345 11.009L5.68303 8.82154C5.50426 8.6508 5.2132 8.64967 5.03297 8.81904L4.16269 9.63688C3.98246 9.80624 3.98127 10.082 4.16008 10.2528L7.63758 13.5739C7.81636 13.7447 8.10741 13.7458 8.28764 13.5764L14.8989 7.36333C15.0791 7.19392 15.0803 6.91819 14.9015 6.74744Z" fill="white"/>
</svg>
