<svg width="26" height="26" viewBox="0 0 26 26" fill="none" xmlns="http://www.w3.org/2000/svg">
<path d="M10.4286 1V4.42857L8.71429 5.28571L6.14286 2.71429L2.71429 6.14286L5.28571 8.71429L4.42857 10.4286H1V15.5714H4.42857L5.28571 17.2857L2.71429 19.8571L6.14286 23.2857L8.71429 20.7143L10.4286 21.5714V25H15.5714V21.5714L17.2857 20.7143L19.8571 23.2857L23.2857 19.8571L20.7143 17.2857L21.5714 15.5714H25V10.4286H21.5714L20.7143 8.71429L23.2857 6.14286L19.8571 2.71429L17.2857 5.28571L15.5714 4.42857V1H10.4286Z" stroke="#03A3F3" stroke-width="1.5" stroke-linecap="round" stroke-linejoin="round"/>
<path d="M12.9999 16.4287C14.8934 16.4287 16.4284 14.8937 16.4284 13.0001C16.4284 11.1066 14.8934 9.57153 12.9999 9.57153C11.1063 9.57153 9.57129 11.1066 9.57129 13.0001C9.57129 14.8937 11.1063 16.4287 12.9999 16.4287Z" stroke="#03A3F3" stroke-width="1.5" stroke-linecap="round" stroke-linejoin="round"/>
</svg>
