<svg width="13" height="13" viewBox="0 0 13 13" fill="none" xmlns="http://www.w3.org/2000/svg">
<path d="M0.94043 10.2054V12.7051H3.44009L10.8124 5.33275L8.31276 2.83309L0.94043 10.2054ZM12.7455 3.39968C12.8073 3.33801 12.8563 3.26476 12.8898 3.18412C12.9232 3.10348 12.9404 3.01704 12.9404 2.92974C12.9404 2.84244 12.9232 2.756 12.8898 2.67536C12.8563 2.59472 12.8073 2.52147 12.7455 2.4598L11.1857 0.900014C11.124 0.83822 11.0508 0.789195 10.9702 0.755746C10.8895 0.722296 10.8031 0.705078 10.7158 0.705078C10.6285 0.705078 10.542 0.722296 10.4614 0.755746C10.3807 0.789195 10.3075 0.83822 10.2458 0.900014L9.026 2.11985L11.5257 4.61951L12.7455 3.39968Z" fill="white"/>
</svg>
