<svg width="19" height="18" viewBox="0 0 19 18" fill="none" xmlns="http://www.w3.org/2000/svg">
<path d="M9.25879 0.000244141C4.28701 0.000244141 0.258789 4.02847 0.258789 9.00024C0.258789 13.972 4.28701 18.0002 9.25879 18.0002C14.2306 18.0002 18.2588 13.972 18.2588 9.00024C18.2588 4.02847 14.2306 0.000244141 9.25879 0.000244141ZM9.25879 3.48412C11.0225 3.48412 12.4523 4.91395 12.4523 6.67766C12.4523 8.44137 11.0225 9.87121 9.25879 9.87121C7.49508 9.87121 6.06524 8.44137 6.06524 6.67766C6.06524 4.91395 7.49508 3.48412 9.25879 3.48412ZM9.25879 15.968C7.12855 15.968 5.21968 15.0027 3.94226 13.493C4.62451 12.2083 5.96 11.3228 7.51685 11.3228C7.60395 11.3228 7.69105 11.3373 7.77451 11.3627C8.24629 11.5152 8.73984 11.6131 9.25879 11.6131C9.77774 11.6131 10.2749 11.5152 10.7431 11.3627C10.8265 11.3373 10.9136 11.3228 11.0007 11.3228C12.5576 11.3228 13.8931 12.2083 14.5753 13.493C13.2979 15.0027 11.389 15.968 9.25879 15.968Z" fill="#03A3F3"/>
</svg>
