<svg width="27" height="27" viewBox="0 0 27 27" fill="none" xmlns="http://www.w3.org/2000/svg">
<path d="M26.606 13.4461C26.606 14.6596 26.5006 15.6406 25.2871 15.6406H15.6333V25.2944C15.6333 26.5058 14.6523 26.6133 13.4387 26.6133C12.2252 26.6133 11.2442 26.5058 11.2442 25.2944V15.6406H1.5904C0.379017 15.6406 0.271484 14.6596 0.271484 13.4461C0.271484 12.2325 0.379017 11.2515 1.5904 11.2515H11.2442V1.59773C11.2442 0.384146 12.2252 0.278809 13.4387 0.278809C14.6523 0.278809 15.6333 0.384146 15.6333 1.59773V11.2515H25.2871C26.5006 11.2515 26.606 12.2325 26.606 13.4461Z" fill="white"/>
</svg>
